<mxfile host="app.diagrams.net">
  <diagram id="architecture" name="Architecture">
    <!-- Simple placeholder diagram file for diagrams.net/draw.io -->
    <mxGraphModel dx="1000" dy="800" grid="1" gridSize="10" guides="1" tooltips="1" connect="1">
      <root>
        <mxCell id="0"/>
        <mxCell id="1" parent="0"/>
      </root>
    </mxGraphModel>
  </diagram>
</mxfile>
